<?xml version="1.0" standalone="no"?>
<!DOCTYPE svg PUBLIC "-//W3C//DTD SVG 20010904//EN"
 "http://www.w3.org/TR/2001/REC-SVG-20010904/DTD/svg10.dtd">
<svg version="1.0" xmlns="http://www.w3.org/2000/svg"
 width="224.000000pt" height="224.000000pt" viewBox="0 0 224.000000 224.000000"
 preserveAspectRatio="xMidYMid meet">

<g transform="translate(0.000000,224.000000) scale(0.100000,-0.100000)"
fill="#000000" stroke="none">
<path d="M264 1895 l-25 -25 3 -517 c3 -473 5 -521 21 -550 28 -52 76 -102
126 -131 l46 -27 525 0 525 0 46 27 c90 53 139 128 147 225 l5 63 71 0 c91 0
176 22 245 63 62 37 162 141 191 197 65 128 65 312 0 440 -29 56 -129 160
-191 197 -107 64 -94 63 -942 63 l-768 0 -25 -25z m1570 -227 c55 -16 138 -99
154 -154 28 -94 8 -169 -63 -239 -56 -57 -102 -75 -189 -75 l-56 0 0 240 0
240 56 0 c31 0 75 -5 98 -12z"/>
<path d="M2 368 l3 -112 43 -33 c86 -65 57 -64 1013 -61 l864 3 57 28 c93 46
160 139 174 241 l7 46 -1082 0 -1082 0 3 -112z"/>
</g>
</svg>
