<?xml version="1.0" standalone="no"?>
<!DOCTYPE svg PUBLIC "-//W3C//DTD SVG 20010904//EN"
 "http://www.w3.org/TR/2001/REC-SVG-20010904/DTD/svg10.dtd">
<svg version="1.0" xmlns="http://www.w3.org/2000/svg"
 width="80.000000pt" height="80.000000pt" viewBox="0 0 80.000000 80.000000"
 preserveAspectRatio="xMidYMid meet">

<g transform="translate(0.000000,80.000000) scale(0.100000,-0.100000)"
fill="#000000" stroke="none">
<path d="M201 630 c-57 -15 -108 -33 -115 -40 -12 -12 -22 -167 -12 -205 4
-16 13 -25 26 -25 18 0 20 7 21 73 1 107 1 107 115 137 86 23 99 30 102 50 3
20 -12 41 -28 39 -3 0 -52 -13 -109 -29z"/>
<path d="M221 551 c-41 -9 -76 -22 -79 -29 -2 -6 13 -19 33 -29 38 -18 29 -19
168 18 40 11 48 32 18 49 -26 13 -50 12 -140 -9z"/>
<path d="M315 484 c-84 -23 -107 -24 -150 -8 -14 6 -16 0 -13 -41 l3 -47 132
-70 c73 -38 137 -67 143 -63 5 3 10 26 10 49 0 55 14 67 97 80 37 6 68 16 70
22 5 16 -148 104 -178 103 -13 0 -64 -12 -114 -25z"/>
<path d="M570 375 c-111 -32 -122 -44 -118 -144 3 -70 5 -76 25 -79 19 -3 22
2 25 39 l3 42 85 23 c47 13 86 24 88 24 1 0 2 -13 2 -30 0 -24 4 -30 20 -30
20 0 21 5 18 88 l-3 87 -30 2 c-16 1 -68 -9 -115 -22z"/>
</g>
</svg>
