<?xml version="1.0" standalone="no"?>
<!DOCTYPE svg PUBLIC "-//W3C//DTD SVG 20010904//EN"
 "http://www.w3.org/TR/2001/REC-SVG-20010904/DTD/svg10.dtd">
<svg version="1.0" xmlns="http://www.w3.org/2000/svg"
 width="592.000000pt" height="592.000000pt" viewBox="0 0 592.000000 592.000000"
 preserveAspectRatio="xMidYMid meet">

<g transform="translate(0.000000,592.000000) scale(0.100000,-0.100000)"
fill="#000000" stroke="none">
<path d="M1848 4202 c-603 -323 -1096 -588 -1094 -589 2 -2 4168 -5 4421 -3 6
0 -75 45 -180 101 -176 93 -428 228 -570 304 -33 18 -172 92 -310 165 -137 73
-272 145 -300 160 -27 15 -95 51 -150 80 -55 29 -156 83 -225 120 -69 37 -159
85 -200 107 -41 22 -118 63 -171 91 -53 29 -102 52 -110 51 -8 0 -508 -265
-1111 -587z"/>
<path d="M890 2110 l0 -1210 30 0 c17 0 150 0 298 -1 l267 0 3 1211 2 1210
-300 0 -300 0 0 -1210z"/>
<path d="M2077 3313 c-4 -3 -7 -548 -7 -1210 l0 -1203 300 0 300 0 0 1210 0
1210 -293 0 c-162 0 -297 -3 -300 -7z"/>
<path d="M3260 3315 c0 -3 0 -547 0 -1210 l0 -1206 295 -2 295 -2 0 1213 0
1212 -295 0 c-162 0 -295 -2 -295 -5z"/>
<path d="M4440 3318 c0 -2 0 -547 0 -1211 l0 -1208 295 0 295 0 0 1208 0 1208
-295 3 c-162 1 -295 1 -295 0z"/>
</g>
</svg>
