<?xml version="1.0" standalone="no"?>
<!DOCTYPE svg PUBLIC "-//W3C//DTD SVG 20010904//EN"
 "http://www.w3.org/TR/2001/REC-SVG-20010904/DTD/svg10.dtd">
<svg version="1.0" xmlns="http://www.w3.org/2000/svg"
 width="591.000000pt" height="592.000000pt" viewBox="0 0 591.000000 592.000000"
 preserveAspectRatio="xMidYMid meet">

<g transform="translate(0.000000,592.000000) scale(0.100000,-0.100000)"
fill="#000000" stroke="none">
<path d="M2920 5680 c-22 -17 -682 -302 -2164 -933 l-478 -204 1 -244 c1 -134
3 -244 4 -245 1 -1 72 29 157 66 85 37 439 190 785 340 347 150 799 345 1005
435 206 89 454 197 551 238 l176 76 589 -250 c324 -137 657 -278 739 -313 487
-205 1273 -539 1288 -547 16 -9 17 5 17 233 l0 244 -147 61 c-957 400 -2410
1017 -2442 1037 -48 31 -49 31 -81 6z"/>
<path d="M2720 4524 c-19 -2 -84 -9 -145 -15 -293 -29 -656 -119 -835 -206
-104 -51 -124 -66 -210 -152 -76 -77 -104 -114 -142 -186 l-46 -90 -76 -715
-77 -715 3 -855 3 -855 133 -3 132 -3 0 -152 c0 -172 7 -209 53 -269 48 -62
115 -93 202 -93 83 1 132 23 188 84 53 59 67 118 67 288 l0 143 985 0 985 0 0
-135 c0 -162 12 -222 54 -278 42 -55 85 -83 152 -98 112 -25 224 27 277 130
26 53 27 60 27 218 l0 163 135 0 135 0 0 873 0 872 -75 705 c-82 776 -86 798
-159 898 -145 196 -539 349 -1091 423 -142 19 -581 34 -675 23z m900 -351 c37
-25 49 -45 50 -76 0 -39 -24 -81 -55 -95 -19 -9 -192 -12 -671 -12 -585 0
-649 2 -674 17 -67 39 -65 133 4 167 27 14 116 16 676 16 592 0 648 -1 670
-17z m428 -403 c145 -19 215 -56 256 -137 19 -38 150 -1060 140 -1098 -3 -14
-23 -44 -44 -67 l-38 -43 -1400 0 c-1386 0 -1400 0 -1422 20 -13 11 -31 39
-41 61 l-19 41 61 524 c33 288 65 541 70 561 20 78 83 124 189 138 89 12 2154
12 2248 0z m-2059 -1825 c153 -78 163 -311 17 -396 -46 -27 -58 -30 -122 -27
-136 6 -219 88 -219 218 0 105 57 183 158 216 47 15 126 10 166 -11z m2063 9
c51 -17 108 -67 135 -117 11 -21 17 -55 18 -98 0 -89 -37 -151 -114 -191 -158
-83 -340 18 -341 188 0 161 151 270 302 218z"/>
</g>
</svg>
