<?xml version="1.0" standalone="no"?>
<!DOCTYPE svg PUBLIC "-//W3C//DTD SVG 20010904//EN"
 "http://www.w3.org/TR/2001/REC-SVG-20010904/DTD/svg10.dtd">
<svg version="1.0" xmlns="http://www.w3.org/2000/svg"
 width="593.000000pt" height="591.000000pt" viewBox="0 0 593.000000 591.000000"
 preserveAspectRatio="xMidYMid meet">

<g transform="translate(0.000000,591.000000) scale(0.100000,-0.100000)"
fill="#000000" stroke="none">
<path d="M1880 5401 c-72 -23 -140 -84 -140 -124 0 -21 -3 -21 -42 -1 -46 24
-144 22 -195 -4 -78 -40 -125 -120 -124 -209 0 -64 27 -127 70 -167 l31 -30
-26 -27 c-33 -34 -55 -115 -45 -160 18 -79 65 -134 146 -171 40 -18 68 -23
135 -23 73 0 92 4 139 28 30 15 55 26 56 25 1 -2 -7 -158 -17 -347 -9 -190
-16 -346 -15 -347 1 -2 52 -4 112 -5 l110 -3 0 77 c0 42 -3 134 -6 205 -4 70
-10 193 -14 275 l-7 147 54 -27 c47 -25 64 -28 143 -28 74 1 98 5 135 24 59
30 108 77 126 121 28 64 16 159 -23 203 -15 16 -14 20 16 49 88 86 92 204 10
293 -59 64 -123 88 -226 83 l-83 -3 -10 31 c-12 36 -51 74 -100 100 -39 19
-168 29 -210 15z"/>
<path d="M3870 5401 c-70 -23 -120 -64 -139 -114 -11 -27 -11 -27 -42 -12 -42
22 -146 22 -190 0 -87 -44 -132 -118 -131 -212 1 -70 18 -111 68 -164 l35 -35
-22 -20 c-33 -30 -50 -71 -51 -124 0 -74 18 -114 72 -164 90 -80 237 -98 349
-42 l51 25 0 -50 c0 -28 -7 -184 -16 -346 -8 -162 -13 -297 -10 -300 6 -6 216
-6 222 0 2 2 -3 145 -11 318 -8 173 -15 328 -15 345 l0 31 53 -26 c44 -22 66
-26 137 -26 94 0 160 23 213 73 77 72 92 188 36 265 l-20 28 40 44 c79 86 80
188 1 277 -53 61 -118 88 -212 89 -40 0 -79 -1 -87 -3 -8 -2 -17 9 -22 26 -20
71 -100 118 -209 122 -41 2 -86 0 -100 -5z"/>
<path d="M1037 4750 c-44 -13 -95 -57 -117 -100 -20 -39 -20 -59 -20 -758 l0
-718 24 -96 c42 -166 136 -337 268 -490 52 -60 405 -508 551 -701 l37 -49 0
-474 0 -474 440 0 440 0 0 28 c0 15 0 279 0 586 0 524 -2 566 -21 660 -31 155
-98 302 -194 426 -25 32 -164 163 -308 291 -144 127 -333 295 -420 373 -159
142 -278 231 -323 242 -76 19 -192 -37 -224 -109 -24 -52 -26 -137 -4 -183 11
-22 110 -118 268 -259 298 -266 316 -282 316 -299 0 -24 -26 -48 -48 -44 -27
4 -554 488 -591 543 -70 102 -67 225 9 316 31 38 135 99 169 99 l21 0 0 514
c0 365 -3 523 -12 547 -36 104 -152 162 -261 129z"/>
<path d="M4755 4748 c-50 -17 -96 -58 -116 -102 -17 -38 -19 -75 -19 -561 l0
-521 47 -12 c66 -18 134 -72 167 -132 59 -109 39 -224 -57 -323 -110 -113
-530 -492 -548 -495 -26 -5 -49 15 -49 42 0 22 86 102 447 420 139 123 159
155 151 250 -9 108 -91 180 -205 181 -56 0 -66 -3 -127 -45 -36 -25 -135 -107
-218 -182 -84 -75 -274 -244 -423 -375 -148 -131 -293 -267 -322 -303 -103
-128 -183 -298 -218 -465 -15 -70 -17 -149 -16 -654 1 -316 3 -576 4 -578 3
-2 707 -5 865 -3 l22 0 0 478 0 477 268 336 c147 185 293 367 326 405 129 152
214 303 268 474 l23 75 0 746 0 745 -28 43 c-48 73 -157 109 -242 79z"/>
<path d="M2854 4214 c-49 -17 -111 -74 -120 -109 -6 -23 -8 -24 -33 -11 -44
23 -112 28 -162 13 -172 -53 -225 -260 -99 -385 l33 -33 -21 -22 c-56 -59 -66
-146 -27 -224 47 -93 132 -138 260 -138 64 0 90 5 130 25 28 13 54 26 59 28 5
3 6 -33 2 -84 -3 -49 -8 -154 -11 -234 -3 -80 -8 -158 -10 -175 -2 -16 -5 -70
-6 -118 l-2 -88 113 0 113 0 -2 88 c-2 48 -8 205 -15 348 -7 143 -12 261 -12
262 1 1 26 -10 56 -25 46 -23 68 -27 135 -27 87 0 143 17 201 61 43 33 84 116
84 168 0 42 -29 118 -49 130 -7 5 0 16 18 32 94 79 93 240 -2 320 -68 57 -187
84 -268 62 -24 -7 -27 -5 -32 21 -8 40 -69 96 -125 115 -56 20 -153 19 -208 0z"/>
</g>
</svg>
