<?xml version="1.0" standalone="no"?>
<!DOCTYPE svg PUBLIC "-//W3C//DTD SVG 20010904//EN"
 "http://www.w3.org/TR/2001/REC-SVG-20010904/DTD/svg10.dtd">
<svg version="1.0" xmlns="http://www.w3.org/2000/svg"
 width="80.000000pt" height="80.000000pt" viewBox="0 0 80.000000 80.000000"
 preserveAspectRatio="xMidYMid meet">

<g transform="translate(0.000000,80.000000) scale(0.100000,-0.100000)"
fill="#000000" stroke="none">
<path d="M99 717 c-65 -49 -43 -153 48 -231 25 -21 48 -30 93 -35 47 -6 67
-14 90 -36 17 -16 30 -34 30 -40 0 -6 -54 -57 -120 -113 -67 -57 -124 -110
-127 -118 -11 -29 14 -64 46 -64 24 0 45 19 136 120 59 67 111 120 115 118 4
-2 52 -52 105 -113 53 -60 104 -116 113 -123 21 -16 47 -15 66 4 35 34 21 57
-114 175 l-130 114 40 38 c26 25 49 37 67 37 42 0 64 20 123 110 43 66 52 85
43 98 -6 10 -16 16 -22 14 -6 -1 -10 4 -9 10 4 20 -21 10 -100 -39 -83 -52
-102 -74 -102 -120 0 -24 -10 -44 -36 -73 l-36 -40 -30 21 c-35 25 -55 66 -63
129 -7 59 -34 102 -86 140 -45 32 -110 40 -140 17z m571 -60 c0 -2 -12 -14
-27 -28 l-28 -24 24 28 c23 25 31 32 31 24z m50 0 c0 -2 -15 -16 -32 -33 l-33
-29 29 33 c28 30 36 37 36 29z m-110 -51 c0 -2 -8 -10 -17 -17 -16 -13 -17
-12 -4 4 13 16 21 21 21 13z m50 -19 c0 -2 -12 -14 -27 -28 l-28 -24 24 28
c23 25 31 32 31 24z"/>
</g>
</svg>
