<?xml version="1.0" standalone="no"?>
<!DOCTYPE svg PUBLIC "-//W3C//DTD SVG 20010904//EN"
 "http://www.w3.org/TR/2001/REC-SVG-20010904/DTD/svg10.dtd">
<svg version="1.0" xmlns="http://www.w3.org/2000/svg"
 width="592.000000pt" height="592.000000pt" viewBox="0 0 592.000000 592.000000"
 preserveAspectRatio="xMidYMid meet">

<g transform="translate(0.000000,592.000000) scale(0.100000,-0.100000)"
fill="#000000" stroke="none">
<path d="M4760 4989 c-132 -69 -334 -107 -775 -146 -137 -12 -296 -17 -505
-17 -305 0 -431 7 -758 45 -96 11 -177 19 -181 17 -10 -4 22 -249 54 -418 144
-752 462 -1360 898 -1713 96 -78 228 -165 292 -191 36 -15 38 -15 83 16 119
82 297 288 415 483 262 433 459 1080 542 1785 8 74 17 145 19 158 4 27 7 28
-84 -19z m-221 -686 c35 -63 -190 -227 -313 -228 -45 0 -51 3 -54 22 -5 32 77
116 156 160 107 60 192 79 211 46z m-1153 -78 c134 -49 220 -143 149 -161 -93
-23 -324 65 -365 139 -14 26 -14 29 5 43 28 22 121 12 211 -21z m979 -782
c-104 -160 -254 -288 -396 -339 -206 -72 -452 -5 -614 167 -50 53 -99 119
-125 168 -12 24 -11 23 26 -6 183 -144 454 -232 633 -206 146 22 311 111 458
248 37 34 70 61 72 60 1 -2 -23 -43 -54 -92z"/>
<path d="M1225 4741 c-44 -10 -134 -40 -200 -66 -206 -81 -313 -116 -377 -123
l-61 -7 54 -36 c151 -101 215 -176 207 -244 -2 -19 -2 -35 2 -35 3 0 46 35 96
78 127 108 157 130 219 157 119 53 297 59 398 12 74 -34 176 -133 248 -241 63
-93 153 -270 185 -363 l19 -53 48 0 49 0 -7 43 c-42 267 -158 569 -275 714
-54 67 -144 133 -215 158 -76 27 -286 30 -390 6z"/>
<path d="M2085 3708 c-337 -19 -630 -135 -795 -315 l-53 -58 6 -250 c12 -471
67 -821 182 -1170 79 -243 171 -430 295 -607 77 -110 241 -278 324 -332 56
-37 60 -38 98 -26 64 19 207 97 288 157 99 74 255 227 340 333 240 301 448
742 573 1216 l34 129 -88 94 c-159 169 -312 393 -429 630 l-65 130 -85 20
c-186 44 -409 61 -625 49z m579 -523 c118 -31 236 -108 236 -155 0 -59 -200
-25 -326 55 -130 84 -76 143 90 100z m-776 -23 c10 -70 -215 -222 -328 -222
-69 0 -42 77 52 146 91 67 178 104 238 101 28 -2 36 -6 38 -25z m480 -674
c162 -50 333 -203 447 -403 l29 -50 -83 77 c-198 183 -389 268 -572 254 -161
-13 -358 -89 -498 -192 l-64 -47 23 39 c96 160 233 276 382 323 102 33 226 33
336 -1z"/>
<path d="M3870 2222 c-93 -5 -251 -34 -431 -78 l-186 -47 -27 -55 c-15 -30
-25 -56 -23 -59 3 -2 88 1 190 8 201 14 411 3 535 -26 184 -44 217 -141 152
-445 -57 -264 -50 -379 26 -469 52 -60 105 -76 249 -75 174 1 434 53 738 148
117 37 117 37 110 64 -25 89 9 209 82 291 21 22 35 41 32 41 -3 0 -55 -20
-114 -44 -182 -74 -361 -136 -503 -173 -117 -31 -151 -36 -255 -37 -103 -1
-125 2 -155 19 -84 49 -91 140 -28 384 36 141 43 181 43 266 0 77 -4 107 -18
132 -28 52 -86 101 -146 124 -56 21 -188 36 -271 31z"/>
</g>
</svg>
